<?xml version="1.0" encoding="UTF-8"?>
<svg version="1.1" xmlns="http://www.w3.org/2000/svg" width="1900" height="1900">
<path d="M0 0 C1.66869141 0.11891602 1.66869141 0.11891602 3.37109375 0.24023438 C23.95048983 1.90527282 40.92486798 9.90358903 55.36328125 24.80859375 C63.06785686 34.39817232 65.35884224 44.2846822 64.375 56.3125 C61.74157666 67.20734855 55.36915623 73.04749099 46.15625 78.83203125 C43.288846 80.35836007 40.48030366 81.37634228 37.375 82.3125 C37.375 82.9725 37.375 83.6325 37.375 84.3125 C38.09558594 84.58191406 38.81617188 84.85132813 39.55859375 85.12890625 C51.53996615 90.16407385 62.68122315 99.91624955 70.375 110.3125 C71.43370965 114.55430378 70.82940972 118.29548777 69.0625 122.25 C66.84262756 124.96317743 64.94696303 126.15997653 61.5625 127.0625 C56.82332337 127.43420013 53.59124411 126.17970364 49.734375 123.4296875 C48.87328125 122.68976563 48.0121875 121.94984375 47.125 121.1875 C46.16464844 120.38054687 45.20429687 119.57359375 44.21484375 118.7421875 C42.47356818 117.2524029 40.73574873 115.75855244 39.00390625 114.2578125 C26.6997338 103.92479752 12.0472763 97.54482107 -2.625 91.3125 C-2.57899658 92.12928223 -2.53299316 92.94606445 -2.4855957 93.78759766 C-2.28589594 97.50354328 -2.11145931 101.22026412 -1.9375 104.9375 C-1.86466797 106.22269531 -1.79183594 107.50789063 -1.71679688 108.83203125 C-1.66201172 110.07597656 -1.60722656 111.31992188 -1.55078125 112.6015625 C-1.46437378 114.31400146 -1.46437378 114.31400146 -1.3762207 116.06103516 C-1.72258576 120.58791428 -3.22307686 123.91057686 -6.4375 127.125 C-10.34451862 129.24595296 -13.42055846 129.57747714 -17.75 128.625 C-21.44747663 126.93702154 -23.79890707 124.96468586 -25.625 121.3125 C-25.72105375 119.88386395 -25.75565791 118.45085541 -25.75871277 117.01899719 C-25.76297775 116.11763535 -25.76724274 115.2162735 -25.77163696 114.28759766 C-25.77118378 113.29590576 -25.77073059 112.30421387 -25.77026367 111.2824707 C-25.77362228 110.24003708 -25.7769809 109.19760345 -25.78044128 108.12358093 C-25.7899748 104.66180239 -25.79189584 101.20007212 -25.79296875 97.73828125 C-25.79618052 95.33652221 -25.79954453 92.93476338 -25.80305481 90.53300476 C-25.80905269 85.48985338 -25.81089412 80.44671915 -25.81030273 75.40356445 C-25.81020127 68.94504735 -25.82383435 62.48664058 -25.84107494 56.0281496 C-25.85220311 51.06356808 -25.85422166 46.09901311 -25.85369301 41.13442039 C-25.85487263 38.75382292 -25.85929338 36.37322475 -25.86702538 33.99263954 C-25.87683811 30.65818235 -25.8739416 27.32396309 -25.86791992 23.98950195 C-25.87353943 23.00793121 -25.87915894 22.02636047 -25.88494873 21.01504517 C-25.85465713 14.40380362 -25.65135351 8.84544189 -21.375 3.5 C-14.7075372 -1.80366359 -8.0438716 -0.69847466 0 0 Z M-2.625 24.3125 C-2.625 38.1725 -2.625 52.0325 -2.625 66.3125 C20.60533704 65.75205998 20.60533704 65.75205998 39.26171875 53.87109375 C40.5747235 52.22618131 40.5747235 52.22618131 41.125 49.5 C39.12101848 40.98307854 33.26388681 35.83068281 26.2578125 31.0390625 C16.64984606 25.28469778 8.76465744 24.3125 -2.625 24.3125 Z " fill="#FFFFFF" transform="translate(1254.625,971.6875)"/>
<path d="M0 0 C1.66869141 0.11891602 1.66869141 0.11891602 3.37109375 0.24023438 C23.95048983 1.90527282 40.92486798 9.90358903 55.36328125 24.80859375 C63.06785686 34.39817232 65.35884224 44.2846822 64.375 56.3125 C61.74157666 67.20734855 55.36915623 73.04749099 46.15625 78.83203125 C43.288846 80.35836007 40.48030366 81.37634228 37.375 82.3125 C37.375 82.9725 37.375 83.6325 37.375 84.3125 C38.09558594 84.58191406 38.81617188 84.85132813 39.55859375 85.12890625 C51.53996615 90.16407385 62.68122315 99.91624955 70.375 110.3125 C71.43370965 114.55430378 70.82940972 118.29548777 69.0625 122.25 C66.84262756 124.96317743 64.94696303 126.15997653 61.5625 127.0625 C56.82332337 127.43420013 53.59124411 126.17970364 49.734375 123.4296875 C48.87328125 122.68976563 48.0121875 121.94984375 47.125 121.1875 C46.16464844 120.38054687 45.20429687 119.57359375 44.21484375 118.7421875 C42.47356818 117.2524029 40.73574873 115.75855244 39.00390625 114.2578125 C26.6997338 103.92479752 12.0472763 97.54482107 -2.625 91.3125 C-2.57899658 92.12928223 -2.53299316 92.94606445 -2.4855957 93.78759766 C-2.28589594 97.50354328 -2.11145931 101.22026412 -1.9375 104.9375 C-1.86466797 106.22269531 -1.79183594 107.50789063 -1.71679688 108.83203125 C-1.66201172 110.07597656 -1.60722656 111.31992188 -1.55078125 112.6015625 C-1.46437378 114.31400146 -1.46437378 114.31400146 -1.3762207 116.06103516 C-1.72451935 120.61318568 -3.2390029 123.92943313 -6.47265625 127.15625 C-10.60441492 129.37585175 -15.08918228 129.0516703 -19.625 128.3125 C-22.52183868 126.1109026 -24.01797231 124.52655538 -25.625 121.3125 C-25.72105375 119.88386395 -25.75565791 118.45085541 -25.75871277 117.01899719 C-25.76297775 116.11763535 -25.76724274 115.2162735 -25.77163696 114.28759766 C-25.77118378 113.29590576 -25.77073059 112.30421387 -25.77026367 111.2824707 C-25.77362228 110.24003708 -25.7769809 109.19760345 -25.78044128 108.12358093 C-25.7899748 104.66180239 -25.79189584 101.20007212 -25.79296875 97.73828125 C-25.79618052 95.33652221 -25.79954453 92.93476338 -25.80305481 90.53300476 C-25.80905269 85.48985338 -25.81089412 80.44671915 -25.81030273 75.40356445 C-25.81020127 68.94504735 -25.82383435 62.48664058 -25.84107494 56.0281496 C-25.85220311 51.06356808 -25.85422166 46.09901311 -25.85369301 41.13442039 C-25.85487263 38.75382292 -25.85929338 36.37322475 -25.86702538 33.99263954 C-25.87683811 30.65818235 -25.8739416 27.32396309 -25.86791992 23.98950195 C-25.87353943 23.00793121 -25.87915894 22.02636047 -25.88494873 21.01504517 C-25.85465713 14.40380362 -25.65135351 8.84544189 -21.375 3.5 C-14.7075372 -1.80366359 -8.0438716 -0.69847466 0 0 Z M-2.625 24.3125 C-2.625 38.1725 -2.625 52.0325 -2.625 66.3125 C20.60533704 65.75205998 20.60533704 65.75205998 39.26171875 53.87109375 C40.5747235 52.22618131 40.5747235 52.22618131 41.125 49.5 C39.12101848 40.98307854 33.26388681 35.83068281 26.2578125 31.0390625 C16.64984606 25.28469778 8.76465744 24.3125 -2.625 24.3125 Z " fill="#FFFFFF" transform="translate(719.625,971.6875)"/>
<path d="M0 0 C2.42005536 0.00315998 4.83888372 -0.02038562 7.25878906 -0.0456543 C17.69965439 -0.08775241 29.33218364 -0.05050185 38.80566406 4.94067383 C42.04871126 8.36389032 42.95299706 11.63247896 43.05566406 16.31567383 C42.3179174 19.90787956 40.8107664 22.53453348 38.24316406 25.19067383 C33.25700772 27.7549828 29.1856641 27.30272203 23.93066406 25.87817383 C16.28078298 24.07536758 8.69897744 24.04047287 0.86816406 24.06567383 C-0.30697754 24.06897705 -1.48211914 24.07228027 -2.69287109 24.07568359 C-10.19663746 24.15513029 -17.41555838 24.6882757 -24.94433594 25.31567383 C-25.27433594 35.87567383 -25.60433594 46.43567383 -25.94433594 57.31567383 C-23.66140625 57.09911133 -21.37847656 56.88254883 -19.02636719 56.65942383 C9.30998973 54.02135697 9.30998973 54.02135697 21.36816406 53.81567383 C22.18244873 53.78538086 22.9967334 53.75508789 23.83569336 53.72387695 C27.75231794 53.72050818 30.44728349 54.20986123 33.53222656 56.56958008 C36.66332466 59.97695154 37.03423062 61.65134049 37.21191406 66.10083008 C36.96404778 69.61433459 36.23841572 71.53762627 34.05566406 74.31567383 C28.32946601 76.89399276 23.24458188 77.86950371 17.01660156 78.26489258 C16.17328278 78.32723587 15.32996399 78.38957916 14.46109009 78.45381165 C12.68491039 78.5827671 10.90830588 78.70598801 9.13134766 78.82373047 C6.4578844 79.00136521 3.78622128 79.19694368 1.11425781 79.39575195 C-0.62655182 79.51986636 -2.36743565 79.64294527 -4.10839844 79.76489258 C-4.88599518 79.82110275 -5.66359192 79.87731293 -6.4647522 79.93522644 C-13.66571573 80.40396231 -20.67390794 80.31567383 -27.94433594 80.31567383 C-27.61433594 91.53567383 -27.28433594 102.75567383 -26.94433594 114.31567383 C-22.95984375 114.26926758 -18.97535156 114.22286133 -14.87011719 114.17504883 C-11.01116205 114.14385407 -7.15222095 114.11956565 -3.29321289 114.09594727 C-0.6110577 114.07809058 2.07071867 114.05025947 4.75268555 114.01391602 C8.60769473 113.96539841 12.46212404 113.94270389 16.31738281 113.92504883 C17.51650803 113.90440369 18.71563324 113.88375854 19.95109558 113.86248779 C28.27788888 113.86024318 28.27788888 113.86024318 32.28735352 116.20800781 C35.16479647 119.6376592 35.88400532 122.88986357 36.05566406 127.31567383 C35.33891471 131.16543067 33.82167944 133.69458028 30.74316406 136.19067383 C23.42780166 139.25291855 15.04826709 138.70033017 7.24316406 138.94067383 C6.54758392 138.96246704 5.85200378 138.98426025 5.13534546 139.00671387 C-34.10977744 140.19076321 -34.10977744 140.19076321 -43.94433594 131.31567383 C-51.94957452 121.2474606 -52.14069131 108.61084393 -52.13183594 96.25317383 C-52.13280273 94.77059082 -52.13280273 94.77059082 -52.13378906 93.25805664 C-52.06906204 83.67551499 -51.36141805 74.1614104 -50.64941406 64.60888672 C-50.07596289 56.36477325 -49.89426723 48.18142268 -49.98730469 39.91723633 C-49.99674103 38.94532349 -50.00617737 37.97341064 -50.01589966 36.9720459 C-50.06827044 32.14913219 -50.153587 27.32952622 -50.28222656 22.50805664 C-50.30966907 20.73300297 -50.33639549 18.95793804 -50.36230469 17.18286133 C-50.39446579 16.37483063 -50.42662689 15.56679993 -50.45976257 14.73428345 C-50.49594775 10.67047989 -50.18239708 8.06663803 -47.65478516 4.79370117 C-44.63876709 2.03630761 -43.08032275 1.72185244 -39.04785156 1.88598633 C-38.33306641 1.9452832 -37.61828125 2.00458008 -36.88183594 2.06567383 C-31.90439218 2.38288674 -27.44841679 2.30519533 -22.53417969 1.35083008 C-15.02865068 -0.00949136 -7.60399185 -0.0207047 0 0 Z " fill="#FFFFFF" transform="translate(1176.9443359375,966.684326171875)"/>
<path d="M0 0 C2.42005536 0.00315998 4.83888372 -0.02038562 7.25878906 -0.0456543 C17.69965439 -0.08775241 29.33218364 -0.05050185 38.80566406 4.94067383 C42.04871126 8.36389032 42.95299706 11.63247896 43.05566406 16.31567383 C42.3179174 19.90787956 40.8107664 22.53453348 38.24316406 25.19067383 C33.25700772 27.7549828 29.1856641 27.30272203 23.93066406 25.87817383 C16.28078298 24.07536758 8.69897744 24.04047287 0.86816406 24.06567383 C-0.30697754 24.06897705 -1.48211914 24.07228027 -2.69287109 24.07568359 C-10.19663746 24.15513029 -17.41555838 24.6882757 -24.94433594 25.31567383 C-25.27433594 35.87567383 -25.60433594 46.43567383 -25.94433594 57.31567383 C-23.66140625 57.09911133 -21.37847656 56.88254883 -19.02636719 56.65942383 C9.30998973 54.02135697 9.30998973 54.02135697 21.36816406 53.81567383 C22.18244873 53.78538086 22.9967334 53.75508789 23.83569336 53.72387695 C27.75231794 53.72050818 30.44728349 54.20986123 33.53222656 56.56958008 C36.66332466 59.97695154 37.03423062 61.65134049 37.21191406 66.10083008 C36.96404778 69.61433459 36.23841572 71.53762627 34.05566406 74.31567383 C28.32946601 76.89399276 23.24458188 77.86950371 17.01660156 78.26489258 C16.17328278 78.32723587 15.32996399 78.38957916 14.46109009 78.45381165 C12.68491039 78.5827671 10.90830588 78.70598801 9.13134766 78.82373047 C6.4578844 79.00136521 3.78622128 79.19694368 1.11425781 79.39575195 C-0.62655182 79.51986636 -2.36743565 79.64294527 -4.10839844 79.76489258 C-4.88599518 79.82110275 -5.66359192 79.87731293 -6.4647522 79.93522644 C-13.66571573 80.40396231 -20.67390794 80.31567383 -27.94433594 80.31567383 C-27.61433594 91.53567383 -27.28433594 102.75567383 -26.94433594 114.31567383 C-22.95984375 114.26926758 -18.97535156 114.22286133 -14.87011719 114.17504883 C-11.01116205 114.14385407 -7.15222095 114.11956565 -3.29321289 114.09594727 C-0.6110577 114.07809058 2.07071867 114.05025947 4.75268555 114.01391602 C8.60769473 113.96539841 12.46212404 113.94270389 16.31738281 113.92504883 C17.51650803 113.90440369 18.71563324 113.88375854 19.95109558 113.86248779 C28.27788888 113.86024318 28.27788888 113.86024318 32.28735352 116.20800781 C35.16479647 119.6376592 35.88400532 122.88986357 36.05566406 127.31567383 C35.33891471 131.16543067 33.82167944 133.69458028 30.74316406 136.19067383 C24.54376662 138.78577043 18.00054427 138.49017724 11.39160156 138.51879883 C10.36314117 138.5244989 9.33468079 138.53019897 8.27505493 138.53607178 C6.10151184 138.54549682 3.92795462 138.55204581 1.75439453 138.5559082 C-1.53736972 138.56557991 -4.82850012 138.59661375 -8.12011719 138.62817383 C-35.68756753 138.76690385 -35.68756753 138.76690385 -43.94433594 131.31567383 C-51.94957452 121.2474606 -52.14069131 108.61084393 -52.13183594 96.25317383 C-52.13280273 94.77059082 -52.13280273 94.77059082 -52.13378906 93.25805664 C-52.06906204 83.67551499 -51.36141805 74.1614104 -50.64941406 64.60888672 C-50.07596289 56.36477325 -49.89426723 48.18142268 -49.98730469 39.91723633 C-49.99674103 38.94532349 -50.00617737 37.97341064 -50.01589966 36.9720459 C-50.06827044 32.14913219 -50.153587 27.32952622 -50.28222656 22.50805664 C-50.30966907 20.73300297 -50.33639549 18.95793804 -50.36230469 17.18286133 C-50.39446579 16.37483063 -50.42662689 15.56679993 -50.45976257 14.73428345 C-50.49594775 10.67047989 -50.18239708 8.06663803 -47.65478516 4.79370117 C-44.63876709 2.03630761 -43.08032275 1.72185244 -39.04785156 1.88598633 C-38.33306641 1.9452832 -37.61828125 2.00458008 -36.88183594 2.06567383 C-31.90439218 2.38288674 -27.44841679 2.30519533 -22.53417969 1.35083008 C-15.02865068 -0.00949136 -7.60399185 -0.0207047 0 0 Z " fill="#FFFFFF" transform="translate(756.9443359375,767.684326171875)"/>
<path d="M0 0 C2.93423195 1.79646854 4.47205355 2.9441071 6 6 C6.09960039 8.9714744 6.13977104 11.9189497 6.1328125 14.890625 C6.13424759 16.23492584 6.13424759 16.23492584 6.13571167 17.60638428 C6.13639365 19.51298085 6.13453816 21.41957973 6.13037109 23.32617188 C6.12509797 26.19667036 6.130276 29.06700691 6.13671875 31.9375 C6.1400048 42.00727842 5.93598112 51.96645295 5 62 C5.92111572 61.82871582 6.84223145 61.65743164 7.79125977 61.48095703 C11.28534692 60.83310187 14.78003341 60.18867511 18.27514648 59.54638672 C19.77343746 59.27036471 21.27149439 58.99306853 22.76928711 58.71435547 C37.16884882 56.03649136 51.28217393 53.55325317 66 54 C66.0093457 53.06841064 66.01869141 52.13682129 66.02832031 51.17700195 C66.0728457 47.65578558 66.13467999 44.13569308 66.20751953 40.61499023 C66.23540842 39.10338067 66.25677906 37.59163396 66.27099609 36.07983398 C66.39721203 23.40354635 67.35192302 11.01356282 76 1 C79.45739557 -0.72869779 83.21975568 -0.48966895 87 0 C89.87029869 1.79393668 91.49131638 2.98263276 93 6 C93.09758265 7.51827131 93.1297618 9.04110345 93.125 10.5625 C93.12886719 11.77099609 93.12886719 11.77099609 93.1328125 13.00390625 C93.02641555 15.40409631 92.81336926 17.70716073 92.52514648 20.08789062 C91.97920323 24.91740035 91.68962697 29.73603926 91.46484375 34.58984375 C91.42173065 35.48395966 91.37861755 36.37807556 91.334198 37.29928589 C91.19758794 40.17850729 91.06666348 43.05793537 90.9375 45.9375 C90.89297699 46.9198764 90.84845398 47.90225281 90.80258179 48.91439819 C89.93841459 68.23081014 89.26898385 87.49851236 90.765625 106.80078125 C91.9150166 122.48997663 91.9150166 122.48997663 88 128 C83.66658901 130.88894066 80.56914011 131.24775897 75.4375 130.4375 C71.41720481 128.75628565 69.08924058 126.77507188 67 123 C66.24988321 119.72943137 66.20875608 116.5339858 66.1875 113.1875 C66.15088257 111.77476807 66.15088257 111.77476807 66.11352539 110.33349609 C66.04406818 107.22191463 66.01685106 104.11229656 66 101 C65.99162109 99.85515137 65.98324219 98.71030273 65.97460938 97.53076172 C65.93098377 90.35335846 65.94146516 83.17727174 66 76 C50.49049525 77.59137903 35.14045131 79.67056941 19.79052734 82.3737793 C18.58477051 82.58429932 17.37901367 82.79481934 16.13671875 83.01171875 C15.07155029 83.20209717 14.00638184 83.39247559 12.90893555 83.58862305 C10.22271783 83.96850361 7.70758725 84.07901945 5 84 C4.93268677 85.6874231 4.93268677 85.6874231 4.86401367 87.40893555 C4.69341316 91.59352927 4.50457848 95.77713746 4.31030273 99.96069336 C4.22884714 101.76939614 4.15229868 103.57832701 4.08081055 105.38745117 C3.97702408 107.99213352 3.8554522 110.5954779 3.73046875 113.19921875 C3.6880732 114.40731453 3.6880732 114.40731453 3.64482117 115.63981628 C3.3564116 121.14804865 2.01739359 124.31014188 -1.3125 128.75 C-3.85687152 130.63471964 -5.85368445 130.81848179 -9 131 C-12.83221256 130.3392737 -15.23761222 129.6591053 -18.19140625 127.10546875 C-20.89829309 122.45757449 -20.46540033 118.21426044 -20.3125 112.9375 C-20.30283203 111.96361328 -20.29316406 110.98972656 -20.28320312 109.98632812 C-20.20886931 105.08999195 -19.94461715 100.24810324 -19.51879883 95.37011719 C-18.99818212 89.26657705 -18.68619325 83.17168816 -18.4609375 77.05078125 C-18.39802017 75.38309441 -18.39802017 75.38309441 -18.33383179 73.68171692 C-18.03832052 65.32364058 -17.88417564 56.96800574 -17.7890625 48.60546875 C-17.77470154 47.41792999 -17.76034058 46.23039124 -17.74554443 45.00686646 C-17.68833837 40.15377537 -17.63284902 35.30082482 -17.59863281 30.44750977 C-17.57116748 26.83321381 -17.52543681 23.21952996 -17.4765625 19.60546875 C-17.47330963 18.50978073 -17.47005676 17.41409271 -17.46670532 16.28520203 C-17.31441616 6.93774861 -17.31441616 6.93774861 -14 3 C-9.82759108 -0.9642222 -5.48356313 -0.82519639 0 0 Z " fill="#FFFFFF" transform="translate(600,772)"/>
<path d="M0 0 C2.93423195 1.79646854 4.47205355 2.9441071 6 6 C6.09960039 8.9714744 6.13977104 11.9189497 6.1328125 14.890625 C6.13424759 16.23492584 6.13424759 16.23492584 6.13571167 17.60638428 C6.13639365 19.51298085 6.13453816 21.41957973 6.13037109 23.32617188 C6.12509797 26.19667036 6.130276 29.06700691 6.13671875 31.9375 C6.1400048 42.00727842 5.93598112 51.96645295 5 62 C5.92111572 61.82871582 6.84223145 61.65743164 7.79125977 61.48095703 C11.28534692 60.83310187 14.78003341 60.18867511 18.27514648 59.54638672 C19.77343746 59.27036471 21.27149439 58.99306853 22.76928711 58.71435547 C37.16884882 56.03649136 51.28217393 53.55325317 66 54 C66.0093457 53.06841064 66.01869141 52.13682129 66.02832031 51.17700195 C66.0728457 47.65578558 66.13467999 44.13569308 66.20751953 40.61499023 C66.23540842 39.10338067 66.25677906 37.59163396 66.27099609 36.07983398 C66.39721203 23.40354635 67.35192302 11.01356282 76 1 C79.45739557 -0.72869779 83.21975568 -0.48966895 87 0 C89.87029869 1.79393668 91.49131638 2.98263276 93 6 C93.09758265 7.51827131 93.1297618 9.04110345 93.125 10.5625 C93.12886719 11.77099609 93.12886719 11.77099609 93.1328125 13.00390625 C93.02641555 15.40409631 92.81336926 17.70716073 92.52514648 20.08789062 C91.97920323 24.91740035 91.68962697 29.73603926 91.46484375 34.58984375 C91.42173065 35.48395966 91.37861755 36.37807556 91.334198 37.29928589 C91.19758794 40.17850729 91.06666348 43.05793537 90.9375 45.9375 C90.89297699 46.9198764 90.84845398 47.90225281 90.80258179 48.91439819 C89.93841459 68.23081014 89.26898385 87.49851236 90.765625 106.80078125 C91.9150166 122.48997663 91.9150166 122.48997663 88 128 C83.5424425 130.971705 79.22586818 130.75294249 74 130 C70.82431458 128.34766078 68.62303515 126.24607029 67 123 C66.84772623 121.62808755 66.7507934 120.24979433 66.68359375 118.87109375 C66.64161865 118.01209473 66.59964355 117.1530957 66.55639648 116.26806641 C66.51716064 115.33397949 66.4779248 114.39989258 66.4375 113.4375 C66.3950415 112.47763184 66.35258301 111.51776367 66.30883789 110.52880859 C65.84964161 99.0221075 65.90610131 87.51342412 66 76 C50.49049525 77.59137903 35.14045131 79.67056941 19.79052734 82.3737793 C18.58477051 82.58429932 17.37901367 82.79481934 16.13671875 83.01171875 C15.07155029 83.20209717 14.00638184 83.39247559 12.90893555 83.58862305 C10.22271783 83.96850361 7.70758725 84.07901945 5 84 C4.93268677 85.6874231 4.93268677 85.6874231 4.86401367 87.40893555 C4.69341316 91.59352927 4.50457848 95.77713746 4.31030273 99.96069336 C4.22884714 101.76939614 4.15229868 103.57832701 4.08081055 105.38745117 C3.97702408 107.99213352 3.8554522 110.5954779 3.73046875 113.19921875 C3.6880732 114.40731453 3.6880732 114.40731453 3.64482117 115.63981628 C3.35542847 121.16682514 2.01121787 124.34356484 -1.3515625 128.78515625 C-4.89403869 131.39584368 -9.83733533 130.56597634 -14 130 C-17.00197464 128.19881522 -18.45166366 127.09667268 -20 124 C-20.09634187 122.40072498 -20.13075126 120.79748543 -20.1328125 119.1953125 C-20.13410156 118.21820312 -20.13539062 117.24109375 -20.13671875 116.234375 C-20.13285156 115.20828125 -20.12898438 114.1821875 -20.125 113.125 C-20.12886719 112.13757813 -20.13273437 111.15015625 -20.13671875 110.1328125 C-20.13542969 109.1428125 -20.13414063 108.1528125 -20.1328125 107.1328125 C-20.13168457 106.24480957 -20.13055664 105.35680664 -20.12939453 104.44189453 C-20.01494891 101.39764106 -19.79033582 98.39746716 -19.52539062 95.36352539 C-18.99891968 89.26200983 -18.68613664 83.17014986 -18.4609375 77.05078125 C-18.39802017 75.38309441 -18.39802017 75.38309441 -18.33383179 73.68171692 C-18.03832052 65.32364058 -17.88417564 56.96800574 -17.7890625 48.60546875 C-17.77470154 47.41792999 -17.76034058 46.23039124 -17.74554443 45.00686646 C-17.68833837 40.15377537 -17.63284902 35.30082482 -17.59863281 30.44750977 C-17.57116748 26.83321381 -17.52543681 23.21952996 -17.4765625 19.60546875 C-17.47330963 18.50978073 -17.47005676 17.41409271 -17.46670532 16.28520203 C-17.31441616 6.93774861 -17.31441616 6.93774861 -14 3 C-9.82759108 -0.9642222 -5.48356313 -0.82519639 0 0 Z " fill="#FFFFFF" transform="translate(1159,772)"/>
<path d="M0 0 C2.89683868 2.2015974 4.39297231 3.78594462 6 7 C6.08705146 9.98970289 6.11550145 12.95584955 6.09765625 15.9453125 C6.0962413 16.8303244 6.09482635 17.7153363 6.09336853 18.62716675 C6.0877614 21.45981191 6.07520771 24.29237864 6.0625 27.125 C6.05748592 29.04296761 6.05292285 30.96093646 6.04882812 32.87890625 C6.03778966 37.58596782 6.02052025 42.2929706 6 47 C15.71517805 36.60637461 25.42336958 26.20664731 35.015625 15.69921875 C35.50651611 15.16192139 35.99740723 14.62462402 36.50317383 14.07104492 C37.84573347 12.60051364 39.18660106 11.12843806 40.52734375 9.65625 C42.96114603 7.04173886 45.45900797 4.51005822 48 2 C48.33 1.67 48.66 1.34 49 1 C54.00211133 0.48803894 58.49777745 0.26421753 63.0625 2.5 C65.70235967 5.90627054 66.85703262 8.68276135 67 13 C65.10775298 18.72898101 61.40717094 23.31830543 57.4375 27.75 C56.90503662 28.35577881 56.37257324 28.96155762 55.82397461 29.58569336 C54.22459188 31.39832712 52.6130303 33.19951495 51 35 C49.76636719 36.40185547 49.76636719 36.40185547 48.5078125 37.83203125 C39.12405676 48.31005882 28.98750661 58.10289695 19 68 C20.85749517 72.07662177 23.57252193 74.62075268 26.875 77.5625 C28.06011984 78.63256446 29.24501077 79.70288249 30.4296875 80.7734375 C31.0287793 81.31194336 31.62787109 81.85044922 32.24511719 82.40527344 C33.87551868 83.88687924 35.47762683 85.39211663 37.0703125 86.9140625 C45.84358223 95.25805465 54.97140965 102.51669923 66.25390625 107.1953125 C68.8677333 108.39989499 69.9106894 109.31303385 71 112 C71.70027121 116.69540826 71.41302882 120.09133659 69.4375 124.4375 C66.29884576 127.73711087 64.52023633 128.4167437 60 129 C41.16413592 127.97142039 25.27341153 110.64592168 12.984375 97.921875 C11.32824607 96.31790761 9.64994653 94.84785049 7.87597656 93.37988281 C6.9269043 92.59452148 5.97783203 91.80916016 5 91 C4.99383667 92.58868896 4.99383667 92.58868896 4.98754883 94.20947266 C4.96569717 98.15722627 4.91134636 102.1039917 4.84741211 106.05126953 C4.8242844 107.75625096 4.80984867 109.46137419 4.80444336 111.16650391 C4.79511488 113.62491687 4.75404475 116.08111578 4.70703125 118.5390625 C4.71293022 119.67379501 4.71293022 119.67379501 4.71894836 120.83145142 C4.56450921 126.49458993 3.1018934 129.06858976 -1 133 C-5.87696646 134.30332724 -10.54835612 133.75606452 -15 131.4375 C-19.96397974 125.3876497 -20.4218304 119.87422986 -20.2421875 112.34765625 C-20.22404495 110.83027611 -20.22404495 110.83027611 -20.20553589 109.28224182 C-20.16392051 106.23792244 -20.10624402 103.19429899 -20.04283142 100.15036774 C-19.9967149 97.83507041 -19.95718904 95.51972718 -19.91906738 93.20428467 C-19.73346951 81.93651801 -19.50615689 70.67005777 -19.25537109 59.40356445 C-19.14421771 54.38972365 -19.0442483 49.37572059 -18.94656563 44.36160183 C-18.86861811 40.46407308 -18.7824865 36.56675588 -18.6941185 32.66945076 C-18.65358411 30.8192292 -18.61610976 28.96893781 -18.58185196 27.1185894 C-18.53347068 24.54549773 -18.47345201 21.97292099 -18.41064453 19.40014648 C-18.39337814 18.27418312 -18.39337814 18.27418312 -18.37576294 17.12547302 C-18.21760954 11.41437813 -17.69182386 6.12842357 -14.0625 1.5625 C-9.43939358 -0.79622777 -5.08229895 -0.90809846 0 0 Z " fill="#FFFFFF" transform="translate(1045,973)"/>
<path d="M0 0 C3.04992966 0.83757538 4.75235526 2.42765062 7.0625 4.56640625 C11.20967168 13.30555926 12.4747039 23.80796642 14.32574463 33.27365112 C16.92348565 46.51040385 19.65563525 59.71994647 22.69396973 72.86294556 C23.01589537 74.25947621 23.33402963 75.65688788 23.64782715 77.05526733 C25.52563371 85.39853502 27.86060035 93.25258773 31.07107544 101.16990662 C33.1410808 106.35287804 34.29838803 111.0482746 33.0625 116.56640625 C31.51480725 119.66179175 30.36429072 120.96813647 27.2265625 122.41015625 C23.80686174 123.5107496 21.52927656 123.67119282 18 122.87890625 C8.82026442 115.6523059 3.04795689 101.01946535 1.3984375 89.58203125 C1.28757812 88.586875 1.17671875 87.59171875 1.0625 86.56640625 C0.27190186 86.62699219 -0.51869629 86.68757813 -1.33325195 86.75 C-4.97185846 87.02639696 -8.61091103 87.29643875 -12.25 87.56640625 C-13.49330078 87.66179687 -14.73660156 87.7571875 -16.01757812 87.85546875 C-23.34118414 88.39368651 -30.59426838 88.70300686 -37.9375 88.56640625 C-38.17750732 89.36147583 -38.17750732 89.36147583 -38.42236328 90.17260742 C-40.37566906 96.35673324 -42.92021235 102.08130263 -45.8125 107.87890625 C-46.23402344 108.75869141 -46.65554688 109.63847656 -47.08984375 110.54492188 C-49.42235366 115.24204046 -51.34188397 118.73129984 -55.9375 121.56640625 C-60.53332889 123.09834921 -63.82963508 122.41572941 -68.16796875 120.57421875 C-70.91741551 119.00830868 -71.86319078 117.52075662 -72.9375 114.56640625 C-73.70403331 107.80857807 -71.26490128 102.83333258 -68.5 96.75390625 C-68.07912109 95.80064453 -67.65824219 94.84738281 -67.22460938 93.86523438 C-64.41168478 87.51477582 -64.41168478 87.51477582 -62.9375 84.56640625 C-62.81134173 83.08895276 -62.71007972 81.60929342 -62.625 80.12890625 C-62.1840864 75.8299986 -62.1840864 75.8299986 -60.125 73.62890625 C-58.75233758 72.9621845 -57.36329037 72.32723472 -55.95458984 71.74047852 C-53.5402817 70.33520039 -52.8099467 69.15563423 -51.4765625 66.71875 C-51.01596436 65.90180664 -50.55536621 65.08486328 -50.08081055 64.24316406 C-49.32924683 62.88723145 -49.32924683 62.88723145 -48.5625 61.50390625 C-42.64608779 51.16536532 -36.23231123 41.22239584 -29.625 31.31640625 C-29.15564026 30.6086203 -28.68628052 29.90083435 -28.20269775 29.17160034 C-22.78075007 21.00315923 -17.22756635 13.10234032 -10.9375 5.56640625 C-10.5046167 5.00260254 -10.0717334 4.43879883 -9.62573242 3.85791016 C-6.74096232 0.4189465 -4.25241967 0.00857343 0 0 Z M-9.9375 41.56640625 C-10.93570278 43.09763365 -11.88252008 44.66238351 -12.80859375 46.23828125 C-13.38287109 47.2128125 -13.95714844 48.18734375 -14.54882812 49.19140625 C-15.4527832 50.73828125 -15.4527832 50.73828125 -16.375 52.31640625 C-16.97376953 53.3321875 -17.57253906 54.34796875 -18.18945312 55.39453125 C-20.55082074 59.41388038 -22.85175326 63.39491278 -24.9375 67.56640625 C-14.5425 67.07140625 -14.5425 67.07140625 -3.9375 66.56640625 C-6.4125 54.19140625 -6.4125 54.19140625 -8.9375 41.56640625 C-9.2675 41.56640625 -9.5975 41.56640625 -9.9375 41.56640625 Z " fill="#FFFFFF" transform="translate(872.9375,976.43359375)"/>
<path d="M0 0 C3.04992966 0.83757538 4.75235526 2.42765062 7.0625 4.56640625 C11.20967168 13.30555926 12.4747039 23.80796642 14.32574463 33.27365112 C16.92348565 46.51040385 19.65563525 59.71994647 22.69396973 72.86294556 C23.01589537 74.25947621 23.33402963 75.65688788 23.64782715 77.05526733 C25.52563371 85.39853502 27.86060035 93.25258773 31.07107544 101.16990662 C33.1410808 106.35287804 34.29838803 111.0482746 33.0625 116.56640625 C31.51480725 119.66179175 30.36429072 120.96813647 27.2265625 122.41015625 C23.80686174 123.5107496 21.52927656 123.67119282 18 122.87890625 C8.82026442 115.6523059 3.04795689 101.01946535 1.3984375 89.58203125 C1.28757812 88.586875 1.17671875 87.59171875 1.0625 86.56640625 C0.27190186 86.62699219 -0.51869629 86.68757812 -1.33325195 86.75 C-4.97185846 87.02639696 -8.61091103 87.29643875 -12.25 87.56640625 C-13.49330078 87.66179687 -14.73660156 87.7571875 -16.01757812 87.85546875 C-23.34118414 88.39368651 -30.59426838 88.70300686 -37.9375 88.56640625 C-38.17750732 89.36147583 -38.17750732 89.36147583 -38.42236328 90.17260742 C-40.37566906 96.35673324 -42.92021235 102.08130263 -45.8125 107.87890625 C-46.23402344 108.75869141 -46.65554688 109.63847656 -47.08984375 110.54492188 C-49.42235366 115.24204046 -51.34188397 118.73129984 -55.9375 121.56640625 C-60.53332889 123.09834921 -63.82963508 122.41572941 -68.16796875 120.57421875 C-70.91741551 119.00830868 -71.86319078 117.52075662 -72.9375 114.56640625 C-73.70403331 107.80857807 -71.26490128 102.83333258 -68.5 96.75390625 C-68.07912109 95.80064453 -67.65824219 94.84738281 -67.22460938 93.86523438 C-64.41168478 87.51477582 -64.41168478 87.51477582 -62.9375 84.56640625 C-62.81134173 83.08895276 -62.71007972 81.60929342 -62.625 80.12890625 C-62.1840864 75.8299986 -62.1840864 75.8299986 -60.125 73.62890625 C-58.75233758 72.9621845 -57.36329037 72.32723472 -55.95458984 71.74047852 C-53.5402817 70.33520039 -52.8099467 69.15563423 -51.4765625 66.71875 C-51.01596436 65.90180664 -50.55536621 65.08486328 -50.08081055 64.24316406 C-49.32924683 62.88723145 -49.32924683 62.88723145 -48.5625 61.50390625 C-42.64608779 51.16536532 -36.23231123 41.22239584 -29.625 31.31640625 C-29.15564026 30.6086203 -28.68628052 29.90083435 -28.20269775 29.17160034 C-22.78075007 21.00315923 -17.22756635 13.10234032 -10.9375 5.56640625 C-10.5046167 5.00260254 -10.0717334 4.43879883 -9.62573242 3.85791016 C-6.74096232 0.4189465 -4.25241967 0.00857343 0 0 Z M-9.9375 41.56640625 C-10.93570278 43.09763365 -11.88252008 44.66238351 -12.80859375 46.23828125 C-13.38287109 47.2128125 -13.95714844 48.18734375 -14.54882812 49.19140625 C-15.4527832 50.73828125 -15.4527832 50.73828125 -16.375 52.31640625 C-16.97376953 53.3321875 -17.57253906 54.34796875 -18.18945312 55.39453125 C-20.55082074 59.41388038 -22.85175326 63.39491278 -24.9375 67.56640625 C-14.5425 67.07140625 -14.5425 67.07140625 -3.9375 66.56640625 C-6.4125 54.19140625 -6.4125 54.19140625 -8.9375 41.56640625 C-9.2675 41.56640625 -9.5975 41.56640625 -9.9375 41.56640625 Z " fill="#FFFFFF" transform="translate(881.9375,777.43359375)"/>
<path d="M0 0 C4.35461806 2.90307871 5.43617157 5.75822884 6.59863281 10.75292969 C7.27610427 14.54578087 7.36851586 18.27990363 7.375 22.125 C7.39949219 22.89714844 7.42398438 23.66929687 7.44921875 24.46484375 C7.47624647 29.75326703 6.60495698 32.87460909 3 37 C-0.66254413 39.07593595 -4.18056319 39.157584 -8.25 38.375 C-13.51941033 35.74029484 -15.59771451 32.28502807 -18 27 C-26.22821628 26.09532701 -31.63716431 26.96363962 -38.41015625 31.83203125 C-52.75849963 43.84308793 -64.63021385 62.65839515 -66.3125 81.5 C-65.79210135 87.32846488 -63.8777919 92.89745359 -61 98 C-59.13355094 99.18330183 -59.13355094 99.18330183 -57 100 C-56.4225 100.3403125 -55.845 100.680625 -55.25 101.03125 C-49.23480747 103.62112456 -41.16687725 102.78258577 -35.125 100.5625 C-29.19838754 97.86325076 -23.65593322 94.34787519 -18.125 90.92578125 C-13.20572947 87.89428078 -9.75673465 87.17898919 -4 88 C-0.98886055 89.27537931 -0.19037238 90.31679384 2 93 C3.34774455 97.21074993 3.72488443 100.51135721 1.76171875 104.54296875 C-6.19718834 115.64308529 -22.75335016 123.71141335 -36 126 C-49.34267668 128.13049506 -61.54942514 126.43564679 -73 119 C-81.49127865 112.54874774 -87.81686804 102.51424921 -90 92 C-92.15951974 65.65088055 -82.69693784 44.80992626 -66 25 C-57.40630409 14.95424633 -45.40551819 4.01843307 -31.61035156 2.78662109 C-27.8863065 2.60576987 -24.16278762 2.51962646 -20.43554688 2.43359375 C-19.52482422 2.40394531 -18.61410156 2.37429688 -17.67578125 2.34375 C-16.4369519 2.31571289 -16.4369519 2.31571289 -15.1730957 2.28710938 C-9.43031836 1.52837371 -6.40345583 -0.97177045 0 0 Z " fill="#FFFFFF" transform="translate(1009,973)"/>
<path d="M0 0 C10.28734353 0.58522167 20.55885912 0.71958576 30.859375 0.796875 C32.50498633 0.81101126 34.15059588 0.82535606 35.79620361 0.83990479 C42.60758098 0.89871739 49.41891145 0.95427837 56.23046875 0.98730469 C60.44993389 1.00828113 64.66907553 1.04355455 68.88835526 1.08806229 C70.47903273 1.10213801 72.06976684 1.1109255 73.66050339 1.11411667 C75.87476455 1.11904454 78.08816185 1.14223197 80.30224609 1.16943359 C81.55572845 1.17752045 82.80921082 1.1856073 84.10067749 1.19393921 C88.82867101 1.71634359 92.75036597 3.06748028 96.5234375 6.0859375 C99.17862674 9.62618982 98.94053876 13.35046924 98.6484375 17.5859375 C96.98272048 21.25051494 95.12267897 23.54226605 91.6484375 25.5859375 C86.96598078 26.94233057 82.43217278 26.53006626 77.62890625 26.24609375 C76.77033524 26.20028671 75.91176422 26.15447968 75.0271759 26.10728455 C72.29640374 25.96023592 69.56621019 25.80445995 66.8359375 25.6484375 C64.97984916 25.54694911 63.12372954 25.44603121 61.26757812 25.34570312 C56.72747553 25.09905605 52.18787172 24.844583 47.6484375 24.5859375 C47.87370117 25.53557373 47.87370117 25.53557373 48.10351562 26.50439453 C48.83134519 30.62028374 49.09071265 34.72306859 49.3671875 38.890625 C49.42976242 39.79855804 49.49233734 40.70649109 49.55680847 41.64193726 C49.75791762 44.58135491 49.95364412 47.52109498 50.1484375 50.4609375 C50.21535797 51.45847046 50.28227844 52.45600342 50.35122681 53.48376465 C52.21778138 81.35367506 52.21778138 81.35367506 52.58105469 94.31494141 C52.62664285 95.85139449 52.68226479 97.38757729 52.74707031 98.92333984 C53.43159572 115.20329011 53.43159572 115.20329011 47.18359375 122.234375 C44.7911552 124.34069495 42.79205953 124.40457469 39.6484375 124.5859375 C35.55401784 123.88000308 33.30380567 123.20681261 30.2734375 120.3359375 C27.17376989 115.09034616 27.58617997 109.50939989 27.7109375 103.5859375 C27.96976132 77.27472008 25.58242301 50.80978607 23.6484375 24.5859375 C22.54556396 24.5562085 22.54556396 24.5562085 21.42041016 24.52587891 C18.03777123 24.4296876 14.65567213 24.32039493 11.2734375 24.2109375 C10.11714844 24.18 8.96085938 24.1490625 7.76953125 24.1171875 C-9.54968799 23.53009532 -9.54968799 23.53009532 -15.4140625 19.4609375 C-18.05920754 15.53588357 -18.3515625 13.33393475 -18.3515625 8.5859375 C-16.92092168 5.36699566 -15.11067016 2.79322363 -12.3515625 0.5859375 C-8.20620611 -0.71026839 -4.2748241 -0.28428207 0 0 Z " fill="#FFFFFF" transform="translate(590.3515625,974.4140625)"/>
<path d="M0 0 C10.28734353 0.58522167 20.55885912 0.71958576 30.859375 0.796875 C32.50498633 0.81101126 34.15059588 0.82535606 35.79620361 0.83990479 C42.60758098 0.89871739 49.41891145 0.95427837 56.23046875 0.98730469 C60.44993389 1.00828113 64.66907553 1.04355455 68.88835526 1.08806229 C70.47903273 1.10213801 72.06976684 1.1109255 73.66050339 1.11411667 C75.87476455 1.11904454 78.08816185 1.14223197 80.30224609 1.16943359 C81.55572845 1.17752045 82.80921082 1.1856073 84.10067749 1.19393921 C88.82867101 1.71634359 92.75036597 3.06748028 96.5234375 6.0859375 C99.17862674 9.62618982 98.94053876 13.35046924 98.6484375 17.5859375 C96.98272048 21.25051494 95.12267897 23.54226605 91.6484375 25.5859375 C86.96598078 26.94233057 82.43217278 26.53006626 77.62890625 26.24609375 C76.77033524 26.20028671 75.91176422 26.15447968 75.0271759 26.10728455 C72.29640374 25.96023592 69.56621019 25.80445995 66.8359375 25.6484375 C64.97984916 25.54694911 63.12372954 25.44603121 61.26757812 25.34570312 C56.72747553 25.09905605 52.18787172 24.844583 47.6484375 24.5859375 C47.87370117 25.53557373 47.87370117 25.53557373 48.10351562 26.50439453 C48.83134519 30.62028374 49.09071265 34.72306859 49.3671875 38.890625 C49.42976242 39.79855804 49.49233734 40.70649109 49.55680847 41.64193726 C49.75791762 44.58135491 49.95364412 47.52109498 50.1484375 50.4609375 C50.21535797 51.45847046 50.28227844 52.45600342 50.35122681 53.48376465 C52.21778138 81.35367506 52.21778138 81.35367506 52.58105469 94.31494141 C52.62664285 95.85139449 52.68226479 97.38757729 52.74707031 98.92333984 C53.43159572 115.20329011 53.43159572 115.20329011 47.18359375 122.234375 C44.7911552 124.34069495 42.79205953 124.40457469 39.6484375 124.5859375 C35.55401784 123.88000308 33.30380567 123.20681261 30.2734375 120.3359375 C27.17376989 115.09034616 27.58617997 109.50939989 27.7109375 103.5859375 C27.96976132 77.27472008 25.58242301 50.80978607 23.6484375 24.5859375 C22.54556396 24.5562085 22.54556396 24.5562085 21.42041016 24.52587891 C18.03777123 24.4296876 14.65567213 24.32039493 11.2734375 24.2109375 C10.11714844 24.18 8.96085937 24.1490625 7.76953125 24.1171875 C-9.54968799 23.53009532 -9.54968799 23.53009532 -15.4140625 19.4609375 C-18.05920754 15.53588357 -18.3515625 13.33393475 -18.3515625 8.5859375 C-16.92092168 5.36699566 -15.11067016 2.79322363 -12.3515625 0.5859375 C-8.20620611 -0.71026839 -4.2748241 -0.28428207 0 0 Z " fill="#FFFFFF" transform="translate(1032.3515625,775.4140625)"/>
<path d="M0 0 C3.61984803 1.89334737 5.68828756 4.06486269 7 8 C7.09517754 9.80011263 7.13073026 11.60362416 7.1328125 13.40625 C7.13490723 14.52427002 7.13700195 15.64229004 7.13916016 16.79418945 C7.1344873 18.01710693 7.12981445 19.24002441 7.125 20.5 C7.12161621 21.78156982 7.11823242 23.06313965 7.11474609 24.38354492 C7.02023722 46.23349891 6.35035171 68.06653685 5 89.875 C4.95820618 90.55962311 4.91641235 91.24424622 4.87335205 91.94961548 C4.13165314 103.90873967 4.13165314 103.90873967 3 109 C18.37542294 107.78519654 34.31086642 105.89637786 49 101 C59.58361436 99.94465384 59.58361436 99.94465384 64.1875 103.375 C66.70265221 107.01763424 67.1916539 109.29895215 67.5234375 113.734375 C66.70853056 117.26158413 64.6194267 119.62354209 62 122 C46.99810671 129.79781788 27.27456939 130.89672029 10.75 132.375 C9.2343042 132.52038208 9.2343042 132.52038208 7.68798828 132.66870117 C-0.0275179 133.26882444 -9.17643493 133.65463909 -15.5625 128.625 C-20.35110091 123.46804517 -21.03735886 118.2901913 -20.97711182 111.37158203 C-20.84484103 108.31774664 -20.66838969 105.2694253 -20.4765625 102.21875 C-20.34163992 99.84725827 -20.20688127 97.47575722 -20.07226562 95.10424805 C-19.99919189 93.8633139 -19.92611816 92.62237976 -19.85083008 91.34384155 C-18.87838128 74.79184306 -17.94985658 58.24855136 -17.6796875 41.66796875 C-17.66152985 40.5566861 -17.64337219 39.44540344 -17.62466431 38.30044556 C-17.54645861 33.05569402 -17.4941398 27.81165883 -17.46728516 22.56640625 C-17.44702462 20.6940095 -17.4266843 18.82161361 -17.40625 16.94921875 C-17.40938202 16.10916794 -17.41251404 15.26911713 -17.41574097 14.40361023 C-17.3545687 9.76238334 -16.94974137 6.8013763 -14 3 C-9.82537361 -0.94943907 -5.48245371 -0.94108261 0 0 Z " fill="#FFFFFF" transform="translate(948,773)"/>
</svg>
